<svg width="25" height="24" viewBox="0 0 25 24" fill="none" xmlns="http://www.w3.org/2000/svg">
<path d="M20.668 22V17C20.668 15.1144 20.668 14.1716 20.0822 13.5858C19.4964 13 18.5536 13 16.668 13L12.668 22L8.66797 13C6.78235 13 5.83954 13 5.25376 13.5858C4.66797 14.1716 4.66797 15.1144 4.66797 17V22" stroke="#367DFF" stroke-width="1.8" stroke-linecap="round" stroke-linejoin="round"/>
<path d="M12.668 15L12.168 19L12.668 20.5L13.168 19L12.668 15ZM12.668 15L11.668 13H13.668L12.668 15Z" stroke="#367DFF" stroke-width="1.8" stroke-linecap="round" stroke-linejoin="round"/>
<path d="M16.168 6.5V5.5C16.168 3.56701 14.601 2 12.668 2C10.735 2 9.16797 3.56701 9.16797 5.5V6.5C9.16797 8.433 10.735 9.99998 12.668 9.99998C14.601 9.99998 16.168 8.433 16.168 6.5Z" stroke="#367DFF" stroke-width="1.8" stroke-linecap="round" stroke-linejoin="round"/>
</svg>
